# Wavefront OBJ file automatically generated by Tiled2Unity

# Vertices (Count = 63)
v 0 -0.32 0
v -0.32 -0.32 0
v -0.32 0 0
v 0 0 0
v -0.64 -0.32 0
v -0.64 0 0
v -0.96 -0.32 0
v -0.96 0 0
v -1.28 -0.32 0
v -1.28 0 0
v -1.6 -0.32 0
v -1.6 0 0
v -1.92 -0.32 0
v -1.92 0 0
v 0 -0.64 0
v -0.32 -0.64 0
v -1.6 -0.64 0
v -1.92 -0.64 0
v 0 -0.96 0
v -0.32 -0.96 0
v -1.6 -0.96 0
v -1.92 -0.96 0
v 0 -1.28 0
v -0.32 -1.28 0
v -1.6 -1.28 0
v -1.92 -1.28 0
v 0 -1.6 0
v -0.32 -1.6 0
v -1.6 -1.6 0
v -1.92 -1.6 0
v 0 -1.92 0
v -0.32 -1.92 0
v -1.6 -1.92 0
v -1.92 -1.92 0
v 0 -2.24 0
v -0.32 -2.24 0
v -1.6 -2.24 0
v -1.92 -2.24 0
v 0 -2.56 0
v -0.32 -2.56 0
v -0.64 -2.56 0
v -0.64 -2.24 0
v -0.96 -2.56 0
v -0.96 -2.24 0
v -1.28 -2.56 0
v -1.28 -2.24 0
v -1.6 -2.56 0
v -1.92 -2.56 0
v -0.64 -0.64 0
v -0.96 -0.64 0
v -1.28 -0.64 0
v -0.64 -0.96 0
v -0.96 -0.96 0
v -1.28 -0.96 0
v -0.64 -1.28 0
v -0.96 -1.28 0
v -1.28 -1.28 0
v -0.64 -1.6 0
v -0.96 -1.6 0
v -1.28 -1.6 0
v -0.64 -1.92 0
v -0.96 -1.92 0
v -1.28 -1.92 0

# Texture cooridinates (Count = 127)
vt 0.0001220703 0.3334554
vt 0.3332113 0.3334554
vt 0.3332113 0.4998779
vt 0.0001220703 0.4998779
vt 0.3334554 0.0001220703
vt 0.6665446 0.0001220703
vt 0.6665446 0.1665446
vt 0.3334554 0.1665446
vt 0.3334554 0.3334554
vt 0.6665446 0.3334554
vt 0.6665446 0.4998779
vt 0.3334554 0.4998779
vt 0.6667888 0.0001220703
vt 0.9998779 0.0001220703
vt 0.9998779 0.1665446
vt 0.6667888 0.1665446
vt 0.6667888 0.5001221
vt 0.9998779 0.5001221
vt 0.9998779 0.6665446
vt 0.6667888 0.6665446
vt 0.6667888 0.3334554
vt 0.9998779 0.3334554
vt 0.9998779 0.4998779
vt 0.6667888 0.4998779
vt 0.0001220703 0.1667888
vt 0.3332113 0.1667888
vt 0.3332113 0.3332112
vt 0.0001220703 0.3332112
vt 0.3334554 0.1667888
vt 0.6665446 0.1667888
vt 0.6665446 0.3332112
vt 0.3334554 0.3332112
vt 0.6667888 0.1667888
vt 0.9998779 0.1667888
vt 0.9998779 0.3332112
vt 0.6667888 0.3332112
vt 0.5001221 0.2858363
vt 0.6665446 0.2858363
vt 0.6665446 0.4284493
vt 0.5001221 0.4284493
vt 0.1667887 0.6155066
vt 0.3332113 0.6155066
vt 0.3332113 0.6921856
vt 0.1667887 0.6921856
vt 0.09103116 0.0001220703
vt 0.1816961 0.0001220703
vt 0.1816961 0.1998779
vt 0.09103116 0.1998779
vt 0.5455766 0.2001221
vt 0.6362416 0.2001221
vt 0.6362416 0.3998779
vt 0.5455766 0.3998779
vt 0.5455766 0.8001221
vt 0.6362416 0.8001221
vt 0.6362416 0.9998779
vt 0.5455766 0.9998779
vt 0.3637584 0.8001221
vt 0.4544234 0.8001221
vt 0.4544234 0.9998779
vt 0.3637584 0.9998779
vt 0.3637584 0.400122
vt 0.4544234 0.400122
vt 0.4544234 0.599878
vt 0.3637584 0.599878
vt 0.1819403 0.8001221
vt 0.2726052 0.8001221
vt 0.2726052 0.9998779
vt 0.1819403 0.9998779
vt 0.2728494 0.8001221
vt 0.3635143 0.8001221
vt 0.3635143 0.9998779
vt 0.2728494 0.9998779
vt 0.1819403 0.6001221
vt 0.2726052 0.6001221
vt 0.2726052 0.7998779
vt 0.1819403 0.7998779
vt 0.2728494 0.6001221
vt 0.3635143 0.6001221
vt 0.3635143 0.7998779
vt 0.2728494 0.7998779
vt 0.3637584 0.2001221
vt 0.4544234 0.2001221
vt 0.4544234 0.3998779
vt 0.3637584 0.3998779
vt 0.1819403 0.400122
vt 0.2726052 0.400122
vt 0.2726052 0.599878
vt 0.1819403 0.599878
vt 0.2728494 0.400122
vt 0.3635143 0.400122
vt 0.3635143 0.599878
vt 0.2728494 0.599878
vt 0.8001221 0.8001221
vt 0.8998779 0.8001221
vt 0.8998779 0.8998779
vt 0.8001221 0.8998779
vt 0.0001220703 0.3001221
vt 0.09987793 0.3001221
vt 0.09987793 0.3998779
vt 0.0001220703 0.3998779
vt 0.0001220703 0.2001221
vt 0.09987793 0.2001221
vt 0.09987793 0.2998779
vt 0.0001220703 0.2998779
vt 0.4286935 0.0001220703
vt 0.5713065 0.0001220703
vt 0.5713065 0.9998779
vt 0.4286935 0.9998779
vt 0.7144078 0.0001220703
vt 0.8570208 0.0001220703
vt 0.8570208 0.9998779
vt 0.7144078 0.9998779
vt 0.2858364 0.0001220703
vt 0.4284494 0.0001220703
vt 0.4284494 0.9998779
vt 0.2858364 0.9998779
vt 0.8572649 0.0001220703
vt 0.9998779 0.9998779
vt 0.8572649 0.9998779
vt 0.5715507 0.0001220703
vt 0.7141637 0.0001220703
vt 0.7141637 0.9998779
vt 0.5715507 0.9998779
vt 0.0001220703 0.0001220703
vt 0.1427351 0.0001220703
vt 0.1427351 0.9998779
vt 0.0001220703 0.9998779

# Normal
vn 0 0 -1

# Groups (Count = 3)

g mesh_0001
f 1/1/1 2/2/1 3/3/1 4/4/1
f 2/5/1 5/6/1 6/7/1 3/8/1
f 5/5/1 7/6/1 8/7/1 6/8/1
f 7/9/1 9/10/1 10/11/1 8/12/1
f 9/13/1 11/14/1 12/15/1 10/16/1
f 11/17/1 13/18/1 14/19/1 12/20/1
f 15/1/1 16/2/1 2/3/1 1/4/1
f 17/21/1 18/22/1 13/23/1 11/24/1
f 19/1/1 20/2/1 16/3/1 15/4/1
f 21/21/1 22/22/1 18/23/1 17/24/1
f 23/1/1 24/2/1 20/3/1 19/4/1
f 25/21/1 26/22/1 22/23/1 21/24/1
f 27/1/1 28/2/1 24/3/1 23/4/1
f 29/21/1 30/22/1 26/23/1 25/24/1
f 31/1/1 32/2/1 28/3/1 27/4/1
f 33/21/1 34/22/1 30/23/1 29/24/1
f 35/1/1 36/2/1 32/3/1 31/4/1
f 37/21/1 38/22/1 34/23/1 33/24/1
f 39/25/1 40/26/1 36/27/1 35/28/1
f 40/29/1 41/30/1 42/31/1 36/32/1
f 41/29/1 43/30/1 44/31/1 42/32/1
f 43/29/1 45/30/1 46/31/1 44/32/1
f 45/29/1 47/30/1 37/31/1 46/32/1
f 47/33/1 48/34/1 38/35/1 37/36/1

g mesh_0002
f 16/37/1 49/38/1 5/39/1 2/40/1
f 49/37/1 50/38/1 7/39/1 5/40/1
f 50/37/1 51/38/1 9/39/1 7/40/1
f 51/37/1 17/38/1 11/39/1 9/40/1
f 20/37/1 52/38/1 49/39/1 16/40/1
f 52/37/1 53/38/1 50/39/1 49/40/1
f 53/37/1 54/38/1 51/39/1 50/40/1
f 54/37/1 21/38/1 17/39/1 51/40/1
f 24/37/1 55/38/1 52/39/1 20/40/1
f 55/37/1 56/38/1 53/39/1 52/40/1
f 56/37/1 57/38/1 54/39/1 53/40/1
f 57/37/1 25/38/1 21/39/1 54/40/1
f 28/37/1 58/38/1 55/39/1 24/40/1
f 58/37/1 59/38/1 56/39/1 55/40/1
f 59/37/1 60/38/1 57/39/1 56/40/1
f 60/37/1 29/38/1 25/39/1 57/40/1
f 32/37/1 61/38/1 58/39/1 28/40/1
f 61/37/1 62/38/1 59/39/1 58/40/1
f 62/37/1 63/38/1 60/39/1 59/40/1
f 63/37/1 33/38/1 29/39/1 60/40/1
f 36/37/1 42/38/1 61/39/1 32/40/1
f 42/37/1 44/38/1 62/39/1 61/40/1
f 44/37/1 46/38/1 63/39/1 62/40/1
f 46/37/1 37/38/1 33/39/1 63/40/1

g mesh_0003
f 2/41/1 5/42/1 6/43/1 3/44/1

g mesh_0004
f 5/45/1 7/46/1 8/47/1 6/48/1
f 9/49/1 11/50/1 12/51/1 10/52/1
f 20/53/1 52/54/1 49/55/1 16/56/1
f 54/57/1 21/58/1 17/59/1 51/60/1
f 24/53/1 55/54/1 52/55/1 20/56/1
f 57/61/1 25/62/1 21/63/1 54/64/1
f 28/65/1 58/66/1 55/67/1 24/68/1
f 58/69/1 59/70/1 56/71/1 55/72/1
f 32/73/1 61/74/1 58/75/1 28/76/1
f 61/77/1 62/78/1 59/79/1 58/80/1
f 62/81/1 63/82/1 60/83/1 59/84/1
f 36/85/1 42/86/1 61/87/1 32/88/1
f 42/89/1 44/90/1 62/91/1 61/92/1

g mesh_0005
f 7/93/1 9/94/1 10/95/1 8/96/1
f 52/97/1 53/98/1 50/99/1 49/100/1
f 53/97/1 54/98/1 51/99/1 50/100/1
f 55/101/1 56/102/1 53/103/1 52/104/1
f 56/101/1 57/102/1 54/103/1 53/104/1

g mesh_0006
f 1/105/1 2/106/1 3/107/1 4/108/1
f 2/109/1 5/110/1 6/111/1 3/112/1
f 5/109/1 7/110/1 8/111/1 6/112/1
f 7/109/1 9/110/1 10/111/1 8/112/1
f 9/109/1 11/110/1 12/111/1 10/112/1
f 11/113/1 13/114/1 14/115/1 12/116/1
f 15/105/1 16/106/1 2/107/1 1/108/1
f 17/113/1 18/114/1 13/115/1 11/116/1
f 19/105/1 20/106/1 16/107/1 15/108/1
f 20/117/1 52/14/1 49/118/1 16/119/1
f 54/120/1 21/121/1 17/122/1 51/123/1
f 21/113/1 22/114/1 18/115/1 17/116/1
f 23/105/1 24/106/1 20/107/1 19/108/1
f 25/113/1 26/114/1 22/115/1 21/116/1
f 27/105/1 28/106/1 24/107/1 23/108/1
f 28/120/1 58/121/1 55/122/1 24/123/1
f 58/120/1 59/121/1 56/122/1 55/123/1
f 29/113/1 30/114/1 26/115/1 25/116/1
f 31/105/1 32/106/1 28/107/1 27/108/1
f 32/124/1 61/125/1 58/126/1 28/127/1
f 61/124/1 62/125/1 59/126/1 58/127/1
f 62/109/1 63/110/1 60/111/1 59/112/1
f 33/113/1 34/114/1 30/115/1 29/116/1
f 35/105/1 36/106/1 32/107/1 31/108/1
f 36/124/1 42/125/1 61/126/1 32/127/1
f 42/124/1 44/125/1 62/126/1 61/127/1
f 37/113/1 38/114/1 34/115/1 33/116/1
f 39/105/1 40/106/1 36/107/1 35/108/1
f 40/124/1 41/125/1 42/126/1 36/127/1
f 41/124/1 43/125/1 44/126/1 42/127/1
f 43/117/1 45/14/1 46/118/1 44/119/1
f 45/117/1 47/14/1 37/118/1 46/119/1
f 47/113/1 48/114/1 38/115/1 37/116/1

