# Wavefront OBJ file automatically generated by Tiled2Unity

# Vertices (Count = 90)
v 0 -0.32 0
v -0.32 -0.32 0
v -0.32 0 0
v 0 0 0
v -0.64 -0.32 0
v -0.64 0 0
v -0.96 -0.32 0
v -0.96 0 0
v -1.28 -0.32 0
v -1.6 -0.32 0
v -1.6 0 0
v -1.28 0 0
v -1.92 -0.32 0
v -1.92 0 0
v -2.24 -0.32 0
v -2.24 0 0
v -2.56 -0.32 0
v -2.88 -0.32 0
v -2.88 0 0
v -2.56 0 0
v -3.2 -0.32 0
v -3.2 0 0
v -3.52 -0.32 0
v -3.52 0 0
v -3.84 -0.32 0
v -4.16 -0.32 0
v -4.16 0 0
v -3.84 0 0
v -4.48 -0.32 0
v -4.48 0 0
v 0 -0.64 0
v -0.32 -0.64 0
v -4.16 -0.64 0
v -4.48 -0.64 0
v -4.16 -0.96 0
v -4.48 -0.96 0
v 0 -1.28 0
v -0.32 -1.28 0
v -0.32 -0.96 0
v 0 -0.96 0
v -4.16 -1.28 0
v -4.48 -1.28 0
v 0 -1.6 0
v -0.32 -1.6 0
v -0.64 -1.6 0
v -0.64 -1.28 0
v -0.96 -1.6 0
v -0.96 -1.28 0
v -1.28 -1.6 0
v -1.28 -1.28 0
v -1.6 -1.6 0
v -1.6 -1.28 0
v -1.92 -1.6 0
v -1.92 -1.28 0
v -2.24 -1.6 0
v -2.24 -1.28 0
v -2.56 -1.6 0
v -2.56 -1.28 0
v -2.88 -1.6 0
v -2.88 -1.28 0
v -3.2 -1.6 0
v -3.2 -1.28 0
v -3.52 -1.6 0
v -3.52 -1.28 0
v -3.84 -1.6 0
v -3.84 -1.28 0
v -4.16 -1.6 0
v -4.48 -1.6 0
v -0.64 -0.64 0
v -0.96 -0.64 0
v -1.28 -0.64 0
v -1.6 -0.64 0
v -1.92 -0.64 0
v -2.24 -0.64 0
v -2.56 -0.64 0
v -2.88 -0.64 0
v -3.2 -0.64 0
v -3.52 -0.64 0
v -3.84 -0.64 0
v -0.64 -0.96 0
v -0.96 -0.96 0
v -1.28 -0.96 0
v -1.6 -0.96 0
v -1.92 -0.96 0
v -2.24 -0.96 0
v -2.56 -0.96 0
v -2.88 -0.96 0
v -3.2 -0.96 0
v -3.52 -0.96 0
v -3.84 -0.96 0

# Texture cooridinates (Count = 114)
vt 0.0001220703 0.5001221
vt 0.3332113 0.5001221
vt 0.3332113 0.6665446
vt 0.0001220703 0.6665446
vt 0.3334554 0.5001221
vt 0.6665446 0.5001221
vt 0.6665446 0.6665446
vt 0.3334554 0.6665446
vt 0.3334554 0.0001220703
vt 0.6665446 0.0001220703
vt 0.6665446 0.1665446
vt 0.3334554 0.1665446
vt 0.0001220703 0.0001220703
vt 0.3332113 0.0001220703
vt 0.3332113 0.1665446
vt 0.0001220703 0.1665446
vt 0.3334554 0.3334554
vt 0.6665446 0.3334554
vt 0.6665446 0.4998779
vt 0.3334554 0.4998779
vt 0.6667888 0.0001220703
vt 0.9998779 0.0001220703
vt 0.9998779 0.1665446
vt 0.6667888 0.1665446
vt 0.6667888 0.3334554
vt 0.9998779 0.3334554
vt 0.9998779 0.4998779
vt 0.6667888 0.4998779
vt 0.0001220703 0.1667888
vt 0.3332113 0.1667888
vt 0.3332113 0.3332112
vt 0.0001220703 0.3332112
vt 0.3334554 0.1667888
vt 0.6665446 0.1667888
vt 0.6665446 0.3332112
vt 0.3334554 0.3332112
vt 0.6667888 0.1667888
vt 0.9998779 0.1667888
vt 0.9998779 0.3332112
vt 0.6667888 0.3332112
vt 0.8001221 0.8001221
vt 0.8998779 0.8001221
vt 0.8998779 0.8998779
vt 0.8001221 0.8998779
vt 0.5001221 0.2858363
vt 0.6665446 0.2858363
vt 0.6665446 0.4284493
vt 0.5001221 0.4284493
vt 0.5001221 0.0001220703
vt 0.9998779 0.9998779
vt 0.5001221 0.9998779
vt 0.1819403 0.2001221
vt 0.2726052 0.2001221
vt 0.2726052 0.3998779
vt 0.1819403 0.3998779
vt 0.09103116 0.0001220703
vt 0.1816961 0.0001220703
vt 0.1816961 0.1998779
vt 0.09103116 0.1998779
vt 0.1819403 0.0001220703
vt 0.2726052 0.0001220703
vt 0.2726052 0.1998779
vt 0.1819403 0.1998779
vt 0.6001221 0.7501221
vt 0.7998779 0.7501221
vt 0.7998779 0.9998779
vt 0.6001221 0.9998779
vt 0.6001221 0.5001221
vt 0.7998779 0.5001221
vt 0.7998779 0.7498779
vt 0.6001221 0.7498779
vt 0.4998779 0.5001221
vt 0.4998779 0.7498779
vt 0.0001220703 0.7498779
vt 0.6667888 0.923199
vt 0.8332112 0.923199
vt 0.8332112 0.9998779
vt 0.6667888 0.9998779
vt 0.8334554 0.923199
vt 0.9998779 0.923199
vt 0.8334554 0.9998779
vt 0.6667888 0.7693529
vt 0.8332112 0.7693529
vt 0.8332112 0.8460318
vt 0.6667888 0.8460318
vt 0.4998779 0.0001220703
vt 0.4998779 0.9998779
vt 0.0001220703 0.9998779
vt 0.4286935 0.0001220703
vt 0.5713065 0.0001220703
vt 0.5713065 0.9998779
vt 0.4286935 0.9998779
vt 0.1429792 0.0001220703
vt 0.2855922 0.0001220703
vt 0.2855922 0.9998779
vt 0.1429792 0.9998779
vt 0.7144078 0.0001220703
vt 0.8570208 0.0001220703
vt 0.8570208 0.9998779
vt 0.7144078 0.9998779
vt 0.2858364 0.0001220703
vt 0.4284494 0.0001220703
vt 0.4284494 0.9998779
vt 0.2858364 0.9998779
vt 0.5715507 0.0001220703
vt 0.7141637 0.0001220703
vt 0.7141637 0.9998779
vt 0.5715507 0.9998779
vt 0.1427351 0.0001220703
vt 0.1427351 0.9998779
vt 0.6364857 0.6001221
vt 0.7271507 0.6001221
vt 0.7271507 0.7998779
vt 0.6364857 0.7998779

# Normal
vn 0 0 -1

# Groups (Count = 4)

g mesh_0001
f 1/1/1 2/2/1 3/3/1 4/4/1
f 2/5/1 5/6/1 6/7/1 3/8/1
f 5/9/1 7/10/1 8/11/1 6/12/1
f 9/5/1 10/6/1 11/7/1 12/8/1
f 10/13/1 13/14/1 14/15/1 11/16/1
f 13/17/1 15/18/1 16/19/1 14/20/1
f 17/21/1 18/22/1 19/23/1 20/24/1
f 18/17/1 21/18/1 22/19/1 19/20/1
f 21/17/1 23/18/1 24/19/1 22/20/1
f 25/5/1 26/6/1 27/7/1 28/8/1
f 26/25/1 29/26/1 30/27/1 27/28/1
f 31/1/1 32/2/1 2/3/1 1/4/1
f 33/25/1 34/26/1 29/27/1 26/28/1
f 35/25/1 36/26/1 34/27/1 33/28/1
f 37/1/1 38/2/1 39/3/1 40/4/1
f 41/25/1 42/26/1 36/27/1 35/28/1
f 43/29/1 44/30/1 38/31/1 37/32/1
f 44/33/1 45/34/1 46/35/1 38/36/1
f 45/33/1 47/34/1 48/35/1 46/36/1
f 47/33/1 49/34/1 50/35/1 48/36/1
f 49/33/1 51/34/1 52/35/1 50/36/1
f 51/33/1 53/34/1 54/35/1 52/36/1
f 53/33/1 55/34/1 56/35/1 54/36/1
f 55/33/1 57/34/1 58/35/1 56/36/1
f 57/33/1 59/34/1 60/35/1 58/36/1
f 59/33/1 61/34/1 62/35/1 60/36/1
f 61/33/1 63/34/1 64/35/1 62/36/1
f 63/33/1 65/34/1 66/35/1 64/36/1
f 65/33/1 67/34/1 41/35/1 66/36/1
f 67/37/1 68/38/1 42/39/1 41/40/1

g mesh_0002
f 7/41/1 9/42/1 12/43/1 8/44/1
f 15/41/1 17/42/1 20/43/1 16/44/1
f 23/41/1 25/42/1 28/43/1 24/44/1

g mesh_0003
f 32/45/1 69/46/1 5/47/1 2/48/1
f 69/45/1 70/46/1 7/47/1 5/48/1
f 70/45/1 71/46/1 9/47/1 7/48/1
f 71/45/1 72/46/1 10/47/1 9/48/1
f 72/45/1 73/46/1 13/47/1 10/48/1
f 73/45/1 74/46/1 15/47/1 13/48/1
f 74/45/1 75/46/1 17/47/1 15/48/1
f 75/45/1 76/46/1 18/47/1 17/48/1
f 76/45/1 77/46/1 21/47/1 18/48/1
f 77/45/1 78/46/1 23/47/1 21/48/1
f 78/45/1 79/46/1 25/47/1 23/48/1
f 79/45/1 33/46/1 26/47/1 25/48/1
f 39/45/1 80/46/1 69/47/1 32/48/1
f 80/45/1 81/46/1 70/47/1 69/48/1
f 81/45/1 82/46/1 71/47/1 70/48/1
f 82/45/1 83/46/1 72/47/1 71/48/1
f 83/45/1 84/46/1 73/47/1 72/48/1
f 84/45/1 85/46/1 74/47/1 73/48/1
f 85/45/1 86/46/1 75/47/1 74/48/1
f 86/45/1 87/46/1 76/47/1 75/48/1
f 87/45/1 88/46/1 77/47/1 76/48/1
f 88/45/1 89/46/1 78/47/1 77/48/1
f 89/45/1 90/46/1 79/47/1 78/48/1
f 90/45/1 35/46/1 33/47/1 79/48/1
f 38/45/1 46/46/1 80/47/1 39/48/1
f 46/45/1 48/46/1 81/47/1 80/48/1
f 48/45/1 50/46/1 82/47/1 81/48/1
f 50/45/1 52/46/1 83/47/1 82/48/1
f 52/45/1 54/46/1 84/47/1 83/48/1
f 54/45/1 56/46/1 85/47/1 84/48/1
f 56/45/1 58/46/1 86/47/1 85/48/1
f 58/45/1 60/46/1 87/47/1 86/48/1
f 60/45/1 62/46/1 88/47/1 87/48/1
f 62/45/1 64/46/1 89/47/1 88/48/1
f 64/45/1 66/46/1 90/47/1 89/48/1
f 66/45/1 41/46/1 35/47/1 90/48/1

g mesh_0004
f 40/49/1 39/22/1 32/50/1 31/51/1

g mesh_0005
f 2/52/1 5/53/1 6/54/1 3/55/1
f 9/56/1 10/57/1 11/58/1 12/59/1
f 17/56/1 18/57/1 19/58/1 20/59/1
f 25/56/1 26/57/1 27/58/1 28/59/1
f 32/60/1 69/61/1 5/62/1 2/63/1

g mesh_0006
f 13/64/1 15/65/1 16/66/1 14/67/1
f 73/68/1 74/69/1 15/70/1 13/71/1

g mesh_0007
f 21/1/1 23/72/1 24/73/1 22/74/1

g mesh_0008
f 78/33/1 79/34/1 25/35/1 23/36/1

g mesh_0009
f 39/75/1 80/76/1 69/77/1 32/78/1
f 56/79/1 58/80/1 86/50/1 85/81/1
f 64/82/1 66/83/1 90/84/1 89/85/1

g mesh_0010
f 47/13/1 49/86/1 50/87/1 48/88/1
f 55/13/1 57/86/1 58/87/1 56/88/1
f 63/13/1 65/86/1 66/87/1 64/88/1

g mesh_0011
f 1/89/1 2/90/1 3/91/1 4/92/1
f 2/93/1 5/94/1 6/95/1 3/96/1
f 5/97/1 7/98/1 8/99/1 6/100/1
f 7/97/1 9/98/1 12/99/1 8/100/1
f 9/97/1 10/98/1 11/99/1 12/100/1
f 10/97/1 13/98/1 14/99/1 11/100/1
f 13/93/1 15/94/1 16/95/1 14/96/1
f 15/97/1 17/98/1 20/99/1 16/100/1
f 17/97/1 18/98/1 19/99/1 20/100/1
f 18/97/1 21/98/1 22/99/1 19/100/1
f 21/97/1 23/98/1 24/99/1 22/100/1
f 23/97/1 25/98/1 28/99/1 24/100/1
f 25/97/1 26/98/1 27/99/1 28/100/1
f 26/101/1 29/102/1 30/103/1 27/104/1
f 31/89/1 32/90/1 2/91/1 1/92/1
f 33/101/1 34/102/1 29/103/1 26/104/1
f 40/89/1 39/90/1 32/91/1 31/92/1
f 35/101/1 36/102/1 34/103/1 33/104/1
f 37/89/1 38/90/1 39/91/1 40/92/1
f 60/105/1 62/106/1 88/107/1 87/108/1
f 41/101/1 42/102/1 36/103/1 35/104/1
f 43/89/1 44/90/1 38/91/1 37/92/1
f 44/13/1 45/109/1 46/110/1 38/88/1
f 45/13/1 47/109/1 48/110/1 46/88/1
f 47/13/1 49/109/1 50/110/1 48/88/1
f 49/13/1 51/109/1 52/110/1 50/88/1
f 51/13/1 53/109/1 54/110/1 52/88/1
f 53/13/1 55/109/1 56/110/1 54/88/1
f 55/13/1 57/109/1 58/110/1 56/88/1
f 57/13/1 59/109/1 60/110/1 58/88/1
f 59/13/1 61/109/1 62/110/1 60/88/1
f 61/13/1 63/109/1 64/110/1 62/88/1
f 63/13/1 65/109/1 66/110/1 64/88/1
f 65/13/1 67/109/1 41/110/1 66/88/1
f 67/101/1 68/102/1 42/103/1 41/104/1

g mesh_0012
f 60/111/1 62/112/1 88/113/1 87/114/1

