# Wavefront OBJ file automatically generated by Tiled2Unity

# Vertices (Count = 63)
v 0 -0.32 0
v -0.32 -0.32 0
v -0.32 0 0
v 0 0 0
v -0.64 -0.32 0
v -0.64 0 0
v -0.96 -0.32 0
v -0.96 0 0
v -1.28 -0.32 0
v -1.28 0 0
v -1.6 -0.32 0
v -1.6 0 0
v -1.92 -0.32 0
v -1.92 0 0
v 0 -0.64 0
v -0.32 -0.64 0
v -1.6 -0.64 0
v -1.92 -0.64 0
v 0 -0.96 0
v -0.32 -0.96 0
v -1.6 -0.96 0
v -1.92 -0.96 0
v 0 -1.28 0
v -0.32 -1.28 0
v -1.6 -1.28 0
v -1.92 -1.28 0
v 0 -1.6 0
v -0.32 -1.6 0
v -1.6 -1.6 0
v -1.92 -1.6 0
v 0 -1.92 0
v -0.32 -1.92 0
v -1.6 -1.92 0
v -1.92 -1.92 0
v 0 -2.24 0
v -0.32 -2.24 0
v -1.6 -2.24 0
v -1.92 -2.24 0
v 0 -2.56 0
v -0.32 -2.56 0
v -0.64 -2.56 0
v -0.64 -2.24 0
v -0.96 -2.56 0
v -0.96 -2.24 0
v -1.28 -2.56 0
v -1.28 -2.24 0
v -1.6 -2.56 0
v -1.92 -2.56 0
v -0.64 -0.64 0
v -0.96 -0.64 0
v -1.28 -0.64 0
v -0.64 -0.96 0
v -0.96 -0.96 0
v -1.28 -0.96 0
v -0.64 -1.28 0
v -0.96 -1.28 0
v -1.28 -1.28 0
v -0.64 -1.6 0
v -0.96 -1.6 0
v -1.28 -1.6 0
v -0.64 -1.92 0
v -0.96 -1.92 0
v -1.28 -1.92 0

# Texture cooridinates (Count = 108)
vt 0.0001220703 0.3334554
vt 0.3332113 0.3334554
vt 0.3332113 0.4998779
vt 0.0001220703 0.4998779
vt 0.6667888 0.0001220703
vt 0.9998779 0.0001220703
vt 0.9998779 0.1665446
vt 0.6667888 0.1665446
vt 0.3334554 0.3334554
vt 0.6665446 0.3334554
vt 0.6665446 0.4998779
vt 0.3334554 0.4998779
vt 0.0001220703 0.0001220703
vt 0.3332113 0.0001220703
vt 0.3332113 0.1665446
vt 0.0001220703 0.1665446
vt 0.6667888 0.5001221
vt 0.9998779 0.5001221
vt 0.9998779 0.6665446
vt 0.6667888 0.6665446
vt 0.6667888 0.3334554
vt 0.9998779 0.3334554
vt 0.9998779 0.4998779
vt 0.6667888 0.4998779
vt 0.0001220703 0.1667888
vt 0.3332113 0.1667888
vt 0.3332113 0.3332112
vt 0.0001220703 0.3332112
vt 0.3334554 0.1667888
vt 0.6665446 0.1667888
vt 0.6665446 0.3332112
vt 0.3334554 0.3332112
vt 0.6667888 0.1667888
vt 0.9998779 0.1667888
vt 0.9998779 0.3332112
vt 0.6667888 0.3332112
vt 0.5001221 0.2858363
vt 0.6665446 0.2858363
vt 0.6665446 0.4284493
vt 0.5001221 0.4284493
vt 0.09103116 0.0001220703
vt 0.1816961 0.0001220703
vt 0.1816961 0.1998779
vt 0.09103116 0.1998779
vt 0.3637584 0.2001221
vt 0.4544234 0.2001221
vt 0.4544234 0.3998779
vt 0.3637584 0.3998779
vt 0.0001220703 0.7501221
vt 0.1998779 0.7501221
vt 0.1998779 0.9998779
vt 0.0001220703 0.9998779
vt 0.2001221 0.7501221
vt 0.3998779 0.7501221
vt 0.3998779 0.9998779
vt 0.2001221 0.9998779
vt 0.0001220703 0.5001221
vt 0.1998779 0.5001221
vt 0.1998779 0.7498779
vt 0.0001220703 0.7498779
vt 0.2001221 0.5001221
vt 0.3998779 0.5001221
vt 0.3998779 0.7498779
vt 0.2001221 0.7498779
vt 0.0001220703 0.2501221
vt 0.1998779 0.2501221
vt 0.1998779 0.4998779
vt 0.2001221 0.2501221
vt 0.3998779 0.2501221
vt 0.3998779 0.4998779
vt 0.2001221 0.4998779
vt 0.4001221 0.2501221
vt 0.599878 0.2501221
vt 0.599878 0.4998779
vt 0.4001221 0.4998779
vt 0.5001221 0.0001220703
vt 0.6665446 0.0001220703
vt 0.6665446 0.1427351
vt 0.5001221 0.1427351
vt 0.5001221 0.6667887
vt 0.9998779 0.6667887
vt 0.9998779 0.9998779
vt 0.5001221 0.9998779
vt 0.2498779 0.5001221
vt 0.2498779 0.9998779
vt 0.2498779 0.0001220703
vt 0.2498779 0.4998779
vt 0.8334554 0.923199
vt 0.9998779 0.923199
vt 0.8334554 0.9998779
vt 0.4998779 0.0001220703
vt 0.4998779 0.9998779
vt 0.4286935 0.0001220703
vt 0.5713065 0.0001220703
vt 0.5713065 0.9998779
vt 0.4286935 0.9998779
vt 0.7144078 0.0001220703
vt 0.8570208 0.0001220703
vt 0.8570208 0.9998779
vt 0.7144078 0.9998779
vt 0.1427351 0.0001220703
vt 0.1427351 0.9998779
vt 0.2858364 0.0001220703
vt 0.4284494 0.0001220703
vt 0.4284494 0.9998779
vt 0.2858364 0.9998779
vt 0.8572649 0.0001220703
vt 0.8572649 0.9998779

# Normal
vn 0 0 -1

# Groups (Count = 3)

g mesh_0001
f 1/1/1 2/2/1 3/3/1 4/4/1
f 2/5/1 5/6/1 6/7/1 3/8/1
f 5/9/1 7/10/1 8/11/1 6/12/1
f 7/13/1 9/14/1 10/15/1 8/16/1
f 9/9/1 11/10/1 12/11/1 10/12/1
f 11/17/1 13/18/1 14/19/1 12/20/1
f 15/1/1 16/2/1 2/3/1 1/4/1
f 17/21/1 18/22/1 13/23/1 11/24/1
f 19/1/1 20/2/1 16/3/1 15/4/1
f 21/21/1 22/22/1 18/23/1 17/24/1
f 23/1/1 24/2/1 20/3/1 19/4/1
f 25/21/1 26/22/1 22/23/1 21/24/1
f 27/1/1 28/2/1 24/3/1 23/4/1
f 29/21/1 30/22/1 26/23/1 25/24/1
f 31/1/1 32/2/1 28/3/1 27/4/1
f 33/21/1 34/22/1 30/23/1 29/24/1
f 35/1/1 36/2/1 32/3/1 31/4/1
f 37/21/1 38/22/1 34/23/1 33/24/1
f 39/25/1 40/26/1 36/27/1 35/28/1
f 40/29/1 41/30/1 42/31/1 36/32/1
f 41/29/1 43/30/1 44/31/1 42/32/1
f 43/29/1 45/30/1 46/31/1 44/32/1
f 45/29/1 47/30/1 37/31/1 46/32/1
f 47/33/1 48/34/1 38/35/1 37/36/1

g mesh_0002
f 16/37/1 49/38/1 5/39/1 2/40/1
f 49/37/1 50/38/1 7/39/1 5/40/1
f 50/37/1 51/38/1 9/39/1 7/40/1
f 51/37/1 17/38/1 11/39/1 9/40/1
f 20/37/1 52/38/1 49/39/1 16/40/1
f 52/37/1 53/38/1 50/39/1 49/40/1
f 53/37/1 54/38/1 51/39/1 50/40/1
f 54/37/1 21/38/1 17/39/1 51/40/1
f 24/37/1 55/38/1 52/39/1 20/40/1
f 55/37/1 56/38/1 53/39/1 52/40/1
f 56/37/1 57/38/1 54/39/1 53/40/1
f 57/37/1 25/38/1 21/39/1 54/40/1
f 28/37/1 58/38/1 55/39/1 24/40/1
f 58/37/1 59/38/1 56/39/1 55/40/1
f 59/37/1 60/38/1 57/39/1 56/40/1
f 60/37/1 29/38/1 25/39/1 57/40/1
f 32/37/1 61/38/1 58/39/1 28/40/1
f 61/37/1 62/38/1 59/39/1 58/40/1
f 62/37/1 63/38/1 60/39/1 59/40/1
f 63/37/1 33/38/1 29/39/1 60/40/1
f 36/37/1 42/38/1 61/39/1 32/40/1
f 42/37/1 44/38/1 62/39/1 61/40/1
f 44/37/1 46/38/1 63/39/1 62/40/1
f 46/37/1 37/38/1 33/39/1 63/40/1

g mesh_0003
f 5/41/1 7/42/1 8/43/1 6/44/1
f 49/45/1 50/46/1 7/47/1 5/48/1

g mesh_0004
f 7/49/1 9/50/1 10/51/1 8/52/1
f 9/53/1 11/54/1 12/55/1 10/56/1
f 50/57/1 51/58/1 9/59/1 7/60/1
f 51/61/1 17/62/1 11/63/1 9/64/1
f 53/65/1 54/66/1 51/67/1 50/4/1
f 54/68/1 21/69/1 17/70/1 51/71/1
f 32/72/1 61/73/1 58/74/1 28/75/1
f 36/72/1 42/73/1 61/74/1 32/75/1

g mesh_0005
f 55/76/1 56/77/1 53/78/1 52/79/1

g mesh_0006
f 57/80/1 25/81/1 21/82/1 54/83/1

g mesh_0007
f 61/57/1 62/84/1 59/85/1 58/52/1
f 42/13/1 44/86/1 62/87/1 61/4/1

g mesh_0008
f 44/88/1 46/89/1 63/82/1 62/90/1

g mesh_0009
f 43/13/1 45/91/1 46/92/1 44/52/1

g mesh_0010
f 1/93/1 2/94/1 3/95/1 4/96/1
f 2/97/1 5/98/1 6/99/1 3/100/1
f 5/13/1 7/101/1 8/102/1 6/52/1
f 7/13/1 9/101/1 10/102/1 8/52/1
f 9/13/1 11/101/1 12/102/1 10/52/1
f 11/103/1 13/104/1 14/105/1 12/106/1
f 15/93/1 16/94/1 2/95/1 1/96/1
f 49/97/1 50/98/1 7/99/1 5/100/1
f 50/13/1 51/101/1 9/102/1 7/52/1
f 51/13/1 17/101/1 11/102/1 9/52/1
f 17/103/1 18/104/1 13/105/1 11/106/1
f 19/93/1 20/94/1 16/95/1 15/96/1
f 53/97/1 54/98/1 51/99/1 50/100/1
f 54/13/1 21/101/1 17/102/1 51/52/1
f 21/103/1 22/104/1 18/105/1 17/106/1
f 23/93/1 24/94/1 20/95/1 19/96/1
f 57/97/1 25/98/1 21/99/1 54/100/1
f 25/103/1 26/104/1 22/105/1 21/106/1
f 27/93/1 28/94/1 24/95/1 23/96/1
f 29/103/1 30/104/1 26/105/1 25/106/1
f 31/93/1 32/94/1 28/95/1 27/96/1
f 32/13/1 61/101/1 58/102/1 28/52/1
f 61/97/1 62/98/1 59/99/1 58/100/1
f 33/103/1 34/104/1 30/105/1 29/106/1
f 35/93/1 36/94/1 32/95/1 31/96/1
f 36/13/1 42/101/1 61/102/1 32/52/1
f 37/103/1 38/104/1 34/105/1 33/106/1
f 39/93/1 40/94/1 36/95/1 35/96/1
f 40/13/1 41/101/1 42/102/1 36/52/1
f 41/107/1 43/6/1 44/82/1 42/108/1
f 43/107/1 45/6/1 46/82/1 44/108/1
f 45/107/1 47/6/1 37/82/1 46/108/1
f 47/103/1 48/104/1 38/105/1 37/106/1

